<?xml version="1.0" standalone="no"?>
<!DOCTYPE svg PUBLIC "-//W3C//DTD SVG 20010904//EN"
 "http://www.w3.org/TR/2001/REC-SVG-20010904/DTD/svg10.dtd">
<svg version="1.0" xmlns="http://www.w3.org/2000/svg"
 width="300.000000pt" height="300.000000pt" viewBox="0 0 300.000000 300.000000"
 preserveAspectRatio="xMidYMid meet">
<metadata>
Created by potrace 1.14, written by Peter Selinger 2001-2017
</metadata>
<g transform="translate(0.000000,300.000000) scale(0.100000,-0.100000)"
fill="#000000" stroke="none">
<path d="M0 1500 l0 -1500 1500 0 1500 0 0 1500 0 1500 -1500 0 -1500 0 0
-1500z m1860 1325 l0 -45 90 0 90 0 0 45 0 45 130 0 130 0 0 -45 0 -45 55 0
55 0 0 -235 0 -235 -95 0 -95 0 0 -125 0 -125 -50 0 -50 0 0 -55 0 -55 -170 0
-170 0 0 55 0 55 -50 0 -50 0 0 125 0 125 -90 0 -90 0 0 235 0 235 45 0 45 0
0 45 0 45 135 0 135 0 0 -45z m-1315 -921 c17 -4 20 -12 17 -39 l-4 -33 -79 5
-79 6 0 -40 0 -40 55 -6 c79 -8 107 -25 124 -74 18 -51 3 -115 -33 -138 -30
-20 -103 -29 -168 -21 -70 9 -80 16 -72 52 l6 30 89 -4 89 -4 0 35 c0 34 -2
36 -37 42 -21 3 -51 8 -68 11 -16 2 -39 14 -52 26 -19 18 -23 32 -23 83 0 94
25 114 140 115 41 0 84 -3 95 -6z m746 -10 c44 -22 59 -68 59 -174 0 -146 -29
-187 -137 -197 -127 -11 -176 26 -189 146 -12 116 16 209 71 232 36 14 164 10
196 -7z m388 1 c42 -21 61 -79 61 -181 0 -141 -31 -183 -143 -191 -84 -6 -135
12 -161 57 -17 29 -21 52 -21 135 0 163 25 194 158 195 49 0 88 -5 106 -15z
m-939 -70 l0 -75 60 0 60 0 0 75 0 75 45 0 45 0 0 -185 0 -185 -45 0 -45 0 0
75 0 75 -60 0 -60 0 0 -75 0 -75 -45 0 -45 0 0 185 0 185 45 0 45 0 0 -75z
m1290 40 c0 -35 0 -35 -45 -35 l-45 0 0 -150 0 -150 -45 0 -45 0 0 150 0 150
-45 0 c-45 0 -45 0 -45 35 l0 35 135 0 135 0 0 -35z m288 3 l-3 -33 -72 -3
-73 -3 0 -39 0 -40 65 0 65 0 0 -35 0 -35 -66 0 -65 0 3 -37 3 -38 73 -3 72
-3 0 -34 0 -35 -120 0 -120 0 0 185 0 185 121 0 120 0 -3 -32z m314 21 c55
-29 64 -161 14 -211 -13 -14 -12 -22 15 -78 16 -34 29 -64 29 -66 0 -2 -20 -4
-46 -4 l-45 0 -27 60 c-25 55 -30 59 -59 60 l-33 0 0 -60 0 -60 -45 0 -45 0 0
185 0 185 111 0 c61 0 119 -5 131 -11z m-1769 -419 c3 -3 2 -19 0 -36 l-5 -31
-76 1 -77 1 -3 -36 -3 -36 55 -6 c80 -8 108 -25 125 -74 18 -51 3 -115 -33
-138 -30 -20 -103 -29 -168 -21 -68 9 -76 15 -71 52 l5 30 89 -4 89 -4 0 35
c0 34 -2 36 -37 42 -21 3 -51 8 -68 11 -16 2 -39 14 -52 26 -19 18 -23 32 -23
83 0 98 26 117 157 113 50 -2 93 -5 96 -8z m336 -4 c40 -21 54 -60 58 -166 4
-79 1 -101 -15 -131 -18 -35 -18 -37 0 -48 20 -12 23 -28 9 -51 -8 -12 -17
-12 -65 3 -31 10 -56 22 -56 27 0 4 -13 3 -30 -3 -40 -15 -105 7 -134 46 -18
24 -21 45 -24 135 -3 119 11 166 58 189 35 17 164 17 199 -1z m211 -146 l0
-150 58 0 c32 0 63 5 70 12 8 8 12 56 12 150 l0 138 40 0 40 0 0 -158 c0 -125
-3 -162 -15 -179 -40 -57 -230 -57 -270 0 -12 17 -15 54 -15 179 l0 158 40 0
40 0 0 -150z m514 133 c9 -29 96 -347 96 -350 0 -2 -20 -3 -45 -3 -43 0 -44 1
-51 35 l-6 35 -68 0 -68 0 -6 -35 c-7 -34 -8 -35 -51 -35 -25 0 -45 2 -45 5 0
7 78 292 91 333 11 32 11 32 79 32 57 0 70 -3 74 -17z m405 1 c36 -26 51 -74
51 -169 0 -159 -28 -185 -205 -185 l-105 0 0 185 0 185 118 0 c92 0 123 -3
141 -16z m-99 -479 l0 -85 -70 0 -70 0 0 85 0 85 70 0 70 0 0 -85z"/>
<path d="M1133 1833 c-9 -3 -13 -37 -13 -119 l0 -114 58 0 c32 0 63 5 70 12 8
8 12 49 12 120 l0 108 -57 -1 c-32 0 -64 -3 -70 -6z"/>
<path d="M1523 1833 c-9 -3 -13 -37 -13 -119 l0 -114 58 0 c32 0 63 5 70 12 8
8 12 49 12 120 l0 108 -57 -1 c-32 0 -64 -3 -70 -6z"/>
<path d="M2480 1775 l0 -55 49 0 c52 0 61 8 61 55 0 47 -9 55 -61 55 l-49 0 0
-55z"/>
<path d="M1042 1398 c-8 -8 -12 -47 -12 -120 l0 -108 60 0 c76 0 82 9 78 138
l-3 97 -55 3 c-34 2 -60 -2 -68 -10z"/>
<path d="M1827 1320 c-10 -33 -17 -64 -17 -70 0 -5 18 -10 40 -10 22 0 40 2
40 5 0 20 -34 135 -40 135 -4 0 -14 -27 -23 -60z"/>
<path d="M2160 1285 l0 -115 55 0 c68 0 75 11 75 119 0 110 -1 111 -71 111
l-59 0 0 -115z"/>
</g>
</svg>
